/* XPM */
static char *result[] = {
/* columns rows colors chars-per-pixel */
"50 50 213 2 ",
"   c #4E2307",
".  c #532905",
"X  c #653A05",
"o  c #6D4002",
"O  c #69420C",
"+  c #734504",
"@  c #774805",
"#  c #7C4A02",
"$  c #7C4F09",
"%  c #784703",
"&  c #7D510B",
"*  c #815002",
"=  c #8E5C01",
"-  c #875B0D",
";  c #915E00",
":  c #9A5505",
">  c #8C5219",
",  c #995B14",
"<  c #89490C",
"1  c #A35B03",
"2  c #946100",
"3  c #9B6A0E",
"4  c #986B14",
"5  c #9F7115",
"6  c #AB6701",
"7  c #A86605",
"8  c #B16A00",
"9  c #B36600",
"0  c #A0700B",
"q  c #B47300",
"w  c #BA7400",
"e  c #BB7B00",
"r  c #B67809",
"t  c #A76714",
"y  c #B17E14",
"u  c #B87A18",
"i  c #AD7C19",
"p  c #996124",
"a  c #C27C01",
"s  c #C17F0C",
"d  c #BB820E",
"f  c #BA8415",
"g  c #B48016",
"h  c #BF9126",
"j  c #C68400",
"k  c #CA8500",
"l  c #CD8B00",
"z  c #C58909",
"x  c #D28E00",
"c  c #CE9102",
"v  c #CE920B",
"b  c #D39301",
"n  c #DA9600",
"m  c #D69902",
"M  c #DC9B00",
"N  c #D29509",
"B  c #D59A0B",
"V  c #D99D0E",
"C  c #C28B11",
"Z  c #C28515",
"A  c #C5931B",
"S  c #CA961C",
"D  c #CC9A1E",
"F  c #CB9415",
"G  c #D59C14",
"H  c #D69F1A",
"J  c #DA9E10",
"K  c #E19E00",
"L  c #DEA301",
"P  c #DBA30B",
"I  c #D7A10E",
"U  c #DCA314",
"Y  c #DFA816",
"T  c #D4A31D",
"R  c #DCA41C",
"E  c #DDA81B",
"W  c #E4A400",
"Q  c #E9A600",
"!  c #E5AA00",
"~  c #EBAB00",
"^  c #E4AA0B",
"/  c #F1AF00",
"(  c #EDB201",
")  c #ECB30B",
"_  c #EFB80E",
"`  c #F2B400",
"'  c #F5BB01",
"]  c #FABD01",
"[  c #F5BD0B",
"{  c #E3AA1E",
"}  c #E6AA17",
"|  c #EAB312",
" . c #EEB915",
".. c #EBB51C",
"X. c #EDBA1C",
"o. c #E4BB1D",
"O. c #F3BC14",
"+. c #F2BD1D",
"@. c #F6BC13",
"#. c #CC9822",
"$. c #DA9D21",
"%. c #D39E23",
"&. c #C08B23",
"*. c #D5A322",
"=. c #DAA424",
"-. c #D5A923",
";. c #DDA923",
":. c #D1A22B",
">. c #D9A529",
",. c #DDAA2B",
"<. c #D7AC2C",
"1. c #DEB32F",
"2. c #DEAF3D",
"3. c #DDB230",
"4. c #E2AD24",
"5. c #E1AD2A",
"6. c #E2A621",
"7. c #E4B125",
"8. c #EAB423",
"9. c #EDB923",
"0. c #E5B22A",
"q. c #E9B42A",
"w. c #EDBC29",
"e. c #F2BE22",
"r. c #E3B331",
"t. c #E6BD3B",
"y. c #EDBC3A",
"u. c #F6C102",
"i. c #FCC204",
"p. c #FCCA01",
"a. c #F9C00E",
"s. c #FBC40F",
"d. c #EBC51F",
"f. c #FBC215",
"g. c #FCCB15",
"h. c #F7C11C",
"j. c #FAC21B",
"k. c #F9CA18",
"l. c #FFD41D",
"z. c #EBC425",
"x. c #F6C322",
"c. c #F9C424",
"v. c #FFCC21",
"b. c #FAC629",
"n. c #F7C829",
"m. c #FFD52A",
"M. c #E8C13C",
"N. c #FFCC34",
"B. c #F9C936",
"V. c #FFD535",
"C. c #FFD33C",
"Z. c #FEEB3C",
"A. c #EBBB41",
"S. c #EBC646",
"D. c #EBC648",
"F. c #F7CA4A",
"G. c #FED444",
"H. c #FFD844",
"J. c #FFDC4B",
"K. c #FACF50",
"L. c #EED15E",
"P. c #FED654",
"I. c #F2D25E",
"U. c #FFD75C",
"Y. c #FBD958",
"T. c #FFE54D",
"R. c #FFE242",
"E. c #FEE454",
"W. c #FFEA5A",
"Q. c #FEEE57",
"!. c #FEDD61",
"~. c #F4D561",
"^. c #F5D874",
"/. c #EBCD6B",
"(. c #FFE564",
"). c #FEEA63",
"_. c #FDE86E",
"`. c #FFF164",
"'. c #FEE974",
"]. c #FDE37E",
"[. c #FEED7C",
"{. c #FFE176",
"}. c #FFF273",
"|. c #FFF27C",
" X c #FEDE82",
".X c #FEED82",
"XX c #FCE58C",
"oX c #FFEE8B",
"OX c #FBE487",
"+X c #FFF483",
"@X c #FFF28C",
"#X c #FFE491",
"$X c #FEEA93",
"%X c #FFF395",
"&X c #FFF59B",
"*X c #FFEDA2",
"=X c #FFF5A2",
"-X c #FFF8AC",
";X c #FFF5B4",
":X c #FFF4BC",
">X c #FEF9BD",
",X c #FFF7C3",
"<X c #FEFAC4",
"1X c #FFF9CC",
"2X c #FEF4CC",
"3X c #FEFCD3",
"4X c #FFFCDA",
"5X c #FFF6D9",
"6X c #FFF9E2",
"7X c #FFFCEB",
"8X c #FEFEF3",
"9X c #FEFEFC",
"0X c None",
/* pixels */
"0X0X0X0X0X0X0X0X0X0X0X0X0X0X0X0X0X0Xk l x n K W W ~ ~ p.p.0X0X0X0X0X0X0X0X0X0X0X0X0X0X0X0X0X0X0X0X0X",
"0X0X0X0X0X0X0X0X0X0X0X0X0X0X0Xa k Q Q Q Q W K K M M n n  .b.B.m.l.l.0X0X0X0X0X0X0X0X0X0X0X0X0X0X0X0X",
"0X0X0X0X0X0X0X0X0X0X0X0X0X9 ` / ~ Q Q Q Q K K K M M n n n n x P.U.T.T.R.V.0X0X0X0X0X0X0X0X0X0X0X0X0X",
"0X0X0X0X0X0X0X0X0X0X0X9 / / ~ ~ Q Q Q W K K K M M n n n b x l x x OX^.W.Q.T.R.0X0X0X0X0X0X0X0X0X0X0X",
"0X0X0X0X0X0X0X0X0X0X9 ` / / ~ ~ Q Q Q W K K K K M n M b x x l l l l l XX).).W.E.0X0X0X0X0X0X0X0X0X0X",
"0X0X0X0X0X0X0X0X0Xl ` / ~ / ~ Q Q ~ Q Q Q Q W K M M n n b x l l l k k k oX[.|.+X+X0X0X0X0X0X0X0X0X0X",
"0X0X0X0X0X0X0X0X` ` ` / / / ~ / ~ ~ ;X=X=X=X&X=X&X&X%X%Xx x x l l l k k k $X-X;X>X;X0X0X0X0X0X0X0X0X",
"0X0X0X0X0X0X0X' ` ` / / / / / :X<X/.x K n n n M n b a 8 u L.l l k l l l k l $X1X3X4X,X0X0X0X0X0X0X0X",
"0X0X0X0X0X0X` ' ` ` / / / / 1Xl n n K M M M n M K n n x l w 1 a l l k l k k l #X8X9X8X,X0X0X0X0X0X0X",
"0X0X0X0X0XM ' ` ` / / / <X4Xn M K K n n K n j >Xn n n b x x j 9 k l l k k k k a XX9X9X9X;X0X0X0X0X0X",
"0X0X0X0X` ] ' ' ` / / 8Xb n M K K K M K M M n (.x b x x x x x l w w k k k k k k k #X9X9X7X$X0X0X0X0X",
"0X0X0X0X] ' ' ` ` / 9Xn n K W W W K K K K n K m.7Xx x x n n x x l w 1 l k k k k l ^.8X7X7X1X0X0X0X0X",
"0X0X0Xv.] ' ' ' ` oXP M W W W W W K K K K w Q v.:Xk x x x n x x x l w K k k k j k k F.6X3X3X&X0X0X0X",
"0X0X0Xi.u.' ' ' ` W.M W Q Q Q Q W W W W M l W g.OX8Xl x x x x x x l l 8 W k k k k k M.3X3X3X1X0X0X0X",
"0X0XH.a.] ' ' ' m d Q ~ Q ~ Q Q Q W K K 8 n Q i.P.3Xk x x x x l l x l k 7 Q k j k k k y.<X<X>XXX0X0X",
"0X0Xa.[ ' ' ' q 6 W ~ ~ ~ ~ Q Q W K K M e n ~ i.H.=X^.l l l l l l l x x a Q k k j j k q.#X#XXXOX0X0X",
"0X).f.a.[ ] ` 1 M ~ ( ( ~ ~ Q Q W K K 9 l n ~ ] V.'.7Xk l x l l l l l l l 8 / k k k k k F.K.K.F.S.0X",
"0X'.f.[ [ ' K 3 Q ( ` ( ~ ~ Q W W M M a b M ~ ] v.Y.;Xy.k a k k k k l l x a Q k k k k j g r.1.7.,.0X",
"0Xj.f.[ [ ] a 1 ` ` ` ( ~ ~ ` Q ` W x x n M ! ] g.V.(.&X+XW.K x k k k l l l 6 a k j j j 0 D D D D 0X",
"0Xj.f.f.[ [ c Q ` l M W ! ~ ~ ! W M n M n M Q ` i.g.V.E.E.E.W.W.`.`.}.}.x l w K k k k j - D S D F 0X",
"}.c.f.@.@.[ q Q ) ' j l c m M L W M M M m L Q ( ` ] f.C.C.C.G.G.G.G.V.c.M l j K k k k k j h :.:.%.D ",
"[.j.f.j.@.a r ~ ' ' ' l l c b m M n M 6 Z.M W ~ ' X.' ] ' ] f.f.[ ' Q j j l k q k k k k k * :.*.:.D ",
"oXj.j.+.@.s r _ [ u.' < M j c m m M M : g.M L W ~ S.` ( ~ ~ ` ~ W b a e l l l w k k k k j X C f f z ",
"oXc.j.j.+.x z [ [ _ _ ' t I j b b b b : g.m M L Q M.! ~ Q L W b M a w k l l l w k k k a k X e e d q ",
"oXc.j.x.j.M Z @._ [ _ ' ( r Y j l b l : k.b m L M t.! W W M c ^ e q k k l l l a k k j k k X 2 2 2 2 ",
"@Xb.c.h.x.) F O.h.O.a. .) ) s L k c c < u.b m M b L ! ! L m ^ e q k l l l l x a k k k k j . = = ; ; ",
"oXb.c.x.h.8.G O. .O.O. .| ) z c j c l b c b n n M L W ~ ~ L k q j k l l x l l a k l k k j . ; ; ; 2 ",
"@Xc.b.c.h.n.T X.h.X.X. . .| ^ , e l l l x b b b n L W ! _ ~ 8 e k l l l l x l a k k k k l . 2 2 2 2 ",
"@Xb.b.x.e.B.T ..+.X.X. . .| ) , d l l b c b b n m M ! ( b.N.|.k l l l l l l l l k k k k j . = ; ; ; ",
"@Xn.c.x.x.+.;.{ e.X.X.X. . .| t z l l b b M M b b n L ) N.U.W.l c l b l x x x Q l k k k j + # * $ * ",
"0Xb.b.x.+.x.!.6.9.X.X.X.....| Z z c b M L ! L L L m M ! n.Y.C.j c b b c x x k / k k k k   # @ # # 0X",
"0Xb.c.x.e.+.{.R X.X.X.X.8...8.d c m L ( ! ! ! ! W L m L +.U.P.k b c b b b x k l l l l k   o o o o 0X",
"0X@Xc.x.+.X.F.R { ..9.7.8.8.8.z M ( ( ( ! L L L L P L L L N.U.j c m c m b b ` l l l k k   o o o o 0X",
"0X%Xz.h.9.8.X.OXE 8.9.9.9.0.8.I ( u.u.L N f u u B L L L L  .(.k c b c m b b ' b c l l e X + + + + 0X",
"0X0Xe.e.e.8.8.*X7.6.q.q.q.q.0.Y u.u.! F f G T Y > g I L L L G.Y.b c m m N ' c c c c l X # # # * 0X0X",
"0X0X%Xw.8.e.8...:Xo.q.q.q.q.p k.l.P F T E E E E E E , v P L | K.m m m b b ` x c c b v X @ @ @ @ 0X0X",
"0X0X0Xw.w.9.9.9.8.5X$.q.q.q.#.G.;.&.4.;.;.{ E 4.;.E Y Y > P P U.N m m M ' N b b c c X $ $ $ $ 0X0X0X",
"0X0X0X%Xw.9.9.8.8.6Xz.H q.q.;.#.7.0.0.7.7.7.4.4.;.4.Y R J P t P B B M ' v x N N N v O - - - - 0X0X0X",
"0X0X0X0Xw.w.w.8.4.4.6Xz.$.q.r.q.8.0.8.0.7.4.4.4.7.;.E R U U V V P B ` B N N N N B & 3 3 4 5 0X0X0X0X",
"0X0X0X0X%Xw.9.7.4.4.4.2Xz.$.q.q.q.q.q.q.0.7.7.4.;.{ E E R R J V V ] B B N N N B d 4 y y y i 0X0X0X0X",
"0X0X0X0X0X&Xq.0.8.4.4.4.;X&X9.0.q.q.q.0.q.0.q.4.4.;.{ R R R U V ] V B N B B F G 5 f f f g 0X0X0X0X0X",
"0X0X0X0X0X0X&X0.7.4.4.4.4.8.+Xn.H q.0.0.0.0.0.4.{ 6.{ ;.{ R ] i.G V G B G G G h A A F A 0X0X0X0X0X0X",
"0X0X0X0X0X0X0X!.0.7.7.4.4.4.;.|._.Y.d.4.7.4.7.4.4.4.R 6.g.g.H H G G G G G G 2.T -.*.T D 0X0X0X0X0X0X",
"0X0X0X0X0X0X0X0X].0.1.5.4.4.;.;.;.4.J.J.G.C.V.V.l.l.l.l.=.R H H U G H G H D.-.-.-.-.-.0X0X0X0X0X0X0X",
"0X0X0X0X0X0X0X0X0X%Xr.5.5.4.4.;.;.;.;.;.;.;.;.;.;.=.=.R =.H $.H H T H $.I.1.1.1.3.<.0X0X0X0X0X0X0X0X",
"0X0X0X0X0X0X0X0X0X0X%X0.4.5.5.,.,.,.;.;.;.>.>.;.>.=.=.=.=.$.=.R =.$.r.~.M.M.M.t.0X0X0X0X0X0X0X0X0X0X",
"0X0X0X0X0X0X0X0X0X0X0X%X$X5.5.5.,.,.,.,.,.,.>.,.>.>.;.=.*.R *.*.*.!.I.S.S.D.D.0X0X0X0X0X0X0X0X0X0X0X",
"0X0X0X0X0X0X0X0X0X0X0X0X0X%X%X5.5.5.,.,.,.,.,.,.,.>.=.=.>.>.=._._.I.~.I.I.0X0X0X0X0X0X0X0X0X0X0X0X0X",
"0X0X0X0X0X0X0X0X0X0X0X0X0X0X0X&X%X@X7.5.3.,.,.,.>.>.>.>.[.'.[.^.^.^.0X0X0X0X0X0X0X0X0X0X0X0X0X0X0X0X",
"0X0X0X0X0X0X0X0X0X0X0X0X0X0X0X0X0X0X0X&X%X%X%X&X%XoXOXXXOX0X0X0X0X0X0X0X0X0X0X0X0X0X0X0X0X0X0X0X0X0X"
};
