/* XPM */
static char *result[] = {
/* columns rows colors chars-per-pixel */
"50 50 116 2 ",
"   c #2C0F02",
".  c #2E1203",
"X  c #2C160C",
"o  c #331606",
"O  c #361909",
"+  c #331B11",
"@  c #3D1E10",
"#  c #3F2111",
"$  c #3E2F27",
"%  c #442515",
"&  c #4B2A19",
"*  c #512F1F",
"=  c #4A3217",
"-  c #52321F",
";  c #412B21",
":  c #4F3123",
">  c #543624",
",  c #503924",
"<  c #5C3A26",
"1  c #573828",
"2  c #5C3B2B",
"3  c #433F3F",
"4  c #5A422D",
"5  c #5A453B",
"6  c #644333",
"7  c #684737",
"8  c #6E4B36",
"9  c #6A493A",
"0  c #724E39",
"q  c #75513C",
"w  c #494444",
"e  c #6E4F40",
"r  c #675148",
"t  c #7C5641",
"y  c #7F5A44",
"u  c #735E55",
"i  c #776259",
"p  c #79635A",
"a  c #7E685F",
"s  c #6E6868",
"d  c #7E6960",
"f  c #6D7173",
"g  c #7C7676",
"h  c #767A7C",
"j  c #856137",
"k  c #825C46",
"l  c #855F49",
"z  c #87614A",
"x  c #8A644D",
"c  c #8D6750",
"v  c #8F6952",
"b  c #8E6E59",
"n  c #926C55",
"m  c #956F58",
"M  c #957057",
"N  c #957159",
"B  c #99745C",
"V  c #816B62",
"C  c #9C7962",
"Z  c #817979",
"A  c #A27F67",
"S  c #97837A",
"D  c #9A877E",
"F  c #9B887F",
"G  c #A5816D",
"H  c #A88471",
"J  c #AE8B73",
"K  c #AE8D7B",
"L  c #B28E75",
"P  c #AF907F",
"I  c #B39076",
"U  c #B59279",
"Y  c #B9967E",
"T  c #BA987F",
"R  c #9D8A81",
"E  c #9B9696",
"W  c #A28E85",
"Q  c #A59189",
"!  c #AA968E",
"~  c #B29783",
"^  c #BD9A82",
"/  c #B79B8B",
"(  c #B89C8D",
")  c #AD9992",
"_  c #BEA18B",
"`  c #BAA091",
"'  c #ACA4A4",
"]  c #B6AEAE",
"[  c #B8AFAF",
"{  c #BCB3B3",
"}  c #C09E86",
"|  c #C2A087",
" . c #C5A48B",
".. c #C8A78F",
"X. c #C8A88F",
"o. c #C8A790",
"O. c #CBAB93",
"+. c #CFAF98",
"@. c #D0AF97",
"#. c #CFB097",
"$. c #CFB098",
"%. c #D1B39B",
"&. c #D9B69B",
"*. c #D5B8A1",
"=. c #DFBFA6",
"-. c #C3BBBB",
";. c #CDCFD1",
":. c #D7D2D2",
">. c #DBD6D6",
",. c #DED9D9",
"<. c #EBD9C8",
"1. c #E1DCDC",
"2. c #FFEEDE",
"3. c #E7E2E2",
"4. c #FFFDFD",
"5. c None",
/* pixels */
"5.5.5.5.5.5.5.5.5.5.5.5.5.5.5.5.D 5.5.5.5.5.5.5.5.5.5.5.5.5.3.3.,.>.5.5.5.5.5.5.5.5.5.5.5.5.5.5.5.5.",
"5.5.5.5.5.5.5.5.5.5.5.) Q R R u 5.5.5.5.5.5.5.5.5.5.5.5.-.-.' 1.>.>.4.{ 5.5.5.5.5.5.5.5.5.5.5.5.5.5.",
"5.5.5.5.5.) ) ) ) ) ! Q p 5.5.5.5.5.5.5.5.5.5.5.5.5.5.5.2.2.2.2.:.E :.;.5.5.5.5.5.5.5.5.5.5.5.5.5.5.",
"R Q Q 4.V V V V a Q Q 5.5.5.5.5.5.5.5.5.5.5.5.5.5.5.5.5.1.2.g 2.2.[ %.] w 5.5.5.5.5.5.5.5.5.5.5.5.5.",
"D i 5.5.5.5.5.5.5.i R X 5.5.5.5.5.5.5.5.5.5.5.5.5.5.5.5.4 2.2.2.| :.&.] ] 5.5.5.5.5.5.5.5.5.5.5.5.5.",
"D ; 5.5.5.5.5.5.5.5.R u 5.5.5.5.5.5.5.5.5.5.5.5.5.5.5.5.2.,._ 2.%.:.5 ] ] 5.5.5.5.5.5.5.5.5.5.5.5.5.",
"5.p 5.h 5.5.5.5.5.5.R u 5.5.5.5.5.5.5.5.5.5.5.5.5.5.5.5.>.,.~ [ ] :.] [ 9 9 5.5.5.5.5.5.5.5.5.5.5.5.",
"5.D 5.f 5.5.5.5.5.5.5.R 5.5.5.5.5.5.5.5.5.5.5.5.5.5.5./ E ,.w { >.>.] # 9 9 9 7 7 7 5.5.5.5.5.5.5.5.",
"5.5.= ;.5.5.5.5.5.5.5.S 5.5.5.5.5.5.5.5.5.5.5.5.5.` / / 1.1.1.[ ,.>.[ K M %.%.O.9 2 A 7 5.5.5.5.5.5.",
"5.5.= 5.5.5.5.5.5.5.5.d 5.5.5.5.5.5.5.5.5.5.5.5.( / P W 1.1.1.1.g E e v v n X.X. . .O 9 5.5.5.5.5.5.",
"5.5.j 5.5.5.5.5.5.5., 2.&.5.5.5.5.5.5.5.5.5.5.P K K K K x 1.-.1.,.{ x ^ ^ x x I } } c c 7 5.5.5.5.5.",
"5.5.5.5.5.5.5.5.5.5.2.2.2.5.5.5.5.5.5.5.5.5.H H J J K n @.1.1.[ { - z k O T ^ ^ }  .| - v 7 5.5.5.5.",
"5.5.5.5.5.5.5.5.5.5.2.2.u 5.5.5.5.5.5.5.5.G 9 H A % B %.B >.s { o x & z ^ ^ } |  . . .o.v 7 & 5.5.5.",
"5.5.5.5.5.5.5.5.5.5.5.&.u x N 5.5.5.5.G G 9 G B B A *.o %.{ [ O.O.n v v  .|  .o.n n ..> n 7 7 . 5.5.",
"5.5.5.5.5.5.5.5.5.5.5.5.X z ^ ^ 5.5.G A m %.*.%.+.*.*.%.B %.m O.O.M n O.O.O.O.N O.O.v n n 7 7 7 7 5.",
"5.5.5.5.5.5.5.5.5.5.5.5.R u U ^ x } | O.@.m %.%.B *.%.%.%.%.m @.O.M n o.o.O.O.1 %.$.O.+.n 7 7 7 7 5.",
"5.5.5.5.5.5.5.5.5.5.5.5.c R C Y n z } o.O.%.%.%.%.%.%.$.+.O.M O.O.m n  ...O.N %.B #.#.+.m 7 7 7 7 5.",
"5.5.5.5.5.5.5.5.5.5.5.5.5.R k U l Y ^ 8 n O.O.@.%.O.O.%.+.N N O.O.O    . .o.M O.#.M O.o.n 7 7 7 5.5.",
"5.5.5.5.5.5.5.5.5.5.5.5.5.R l k & U ^ }  .X.o.m O.O.O.O.O.m N O.o...n n  . .o.n #.O.O.O.n # 7 5.5.5.",
"5.5.5.5.5.5.5.5.5.5.5.5.5.W X z z l Y ^ }  . .n 1 %.%.$.%.B M o.o...n c C  .X.n X.X.o.o.n o 7 5.5.5.",
"5.5.5.5.5.5.5.5.5.5.5.5.5.X W 9 z z z Y ^ x c O.O.%.%.%.@.m n X... .c c c }  . .n  . .n n 0 7 5.5.5.",
"5.5.5.5.5.5.5.5.5.5.5.5.5.5.Q 9 7 7 z z x x x O.$.#.#.@.O.m n X.....c x x x }  . .n  .n v N 7 5.5.5.",
"5.5.5.5.5.5.5.5.5.5.5.5.5.5.! 7 7 7 7 7 9 7 7 ..m O.O.O.O.m n .. . .x c x x x } |  .v v  .( 5.5.5.5.",
"5.5.5.5.5.5.5.5.5.5.5.5.5.5.! 7 7 7 6 7 7 7  .n n O.O.O.O.m n X. . .c x x z x x |  . .n  .B n 5.5.5.",
"5.5.5.5.5.5.5.5.5.5.5.5.5.5.) X 7 7 7 7 7 9  . .o.o.O.O.#.m n X. . .x x z x z x o  . . . . .v 5.5.5.",
"5.5.5.5.5.5.5.5.5.5.5.5.5.5.: ! 7 % % 7 7 7  . .X.o.O.O.O.M n X...| O x z x x z z _ v  . . .v 5.5.5.",
"5.5.5.5.5.5.5.5.5.5.5.5.5.5.7 ! 7 7 O 7 7 7  . .X.o.O.O.O.n n .. . .c c x x x x x  .v v G  .v v 5.5.",
"5.5.5.5.5.5.5.5.5.5.5.5.5.5.7 ! 7 7 O 7 7 7 .. .X.o.O.O.O.n n  . . .v x x x x x x ^ v v v  .v v 5.5.",
"5.5.5.5.5.5.5.5.5.5.5.5.5.5.7 Q 7 7 7 7 7 7  .....X.M o.O.n n  . . .n n x x x x x | P n | X.n v 5.5.",
"5.5.5.5.5.5.5.5.5.5.5.5.5.5.7 W 7 7 7 7 7 7  ... .X.O.M o.m n .... .| q x x x x x  .X.n o.o.n v n 5.",
"5.5.5.5.5.5.5.5.5.5.5.5.5.  7 R 7 7 7 7 7 7  . .....O.O.m n n  ... . .c x x x x x c o.n o.o.n v v 5.",
"5.5.5.5.5.5.5.5.5.5.5.5.5.1 7 D 7 7 7 6 7 6  . . ...o.O.n n n X.X.X.| v x x x z x c O.O.o.o.n n n v ",
"5.5.5.5.5.5.5.5.5.5.5.5.5.7 7 D 7 7 7 7 7 b | |  . .o.O.O.O.n m n v o q x x z l l c O.O.O.O.n n n v ",
"5.5.5.5.5.5.5.5.5.5.5.5.5.7 7 R 5 7 7 7 7 | } ^ |  .o.7 @.O.o.X.n n v . x x l l l x O.@.O.M n n n 5.",
"5.5.5.5.5.5.5.5.5.5.5.5.5.7 7 + D 7 7 7 7 } ^ ^ }  .O.@.O.O.....X.v x x x z l k l l X.@.@.M M 5.5.5.",
"5.5.5.5.5.5.5.5.5.5.5.5.5.7 7 + R 7 7 7 7 ^ ^ ^ ^  .o.O.m m n n n  .| } T z k k o k q @.O.m N 5.5.5.",
"5.5.5.5.5.5.5.5.5.5.5.5.5.7 7 7 D 7 7 7 7 Y Y T T % X.m m n n n x  .| } T l k k k z z O.O.m n 5.5.5.",
"5.5.5.5.5.5.5.5.5.5.5.5.5.7 7 7 D 7 7 7 7 Y U l z x X.m n n n n v  .} } T z k k k k z ..o.n v 5.5.5.",
"5.5.5.5.5.5.5.5.5.5.5.5.5.7 7 7 u 7 7 7 7 U I k k z | X.X.X.n n v L } ^ T Y k 6 k k k } | O c 5.5.5.",
"5.5.5.5.5.5.5.5.5.5.5.5.5.7 7 7 X 7 7 7 9 U k k U Y B  ... . . .v x T } T Y L k k k k T ^ x z < 5.5.",
"5.5.5.5.5.5.5.5.5.5.5.5.5.7 7 7 u 7 7 7 7 L k L I U z  . . . . .v l Y ^ ^ Y L k k k k I k k l z 5.5.",
"5.5.5.5.5.5.5.5.5.5.5.5.5.7 9 7 u u 7 7 7 L J L L k U | | | _ U l U Y ^ U U I I k k q k C k k k 5.5.",
"5.5.5.5.5.5.5.5.5.5.5.5.5.7 7 7 u u o 7 7 . J L L I L $ T k k x Y k I U U U I I L k k k k k k k z 5.",
"5.5.5.5.5.5.5.5.5.5.5.5.5.7 7 7 7 u 5.5.5.. J L L L L k U k L J L L k L I I L L L L L k k k k z 5.5.",
"5.5.5.5.5.5.5.5.5.5.5.5.5.: . 5.5.u 5.5.5.5.L L L L L k L y J J J J J J y k L L L L U U k k 5.5.5.5.",
"5.5.5.5.5.5.5.5.5.5.5.5.5.5.5.5.5.u 5.5.5.5.U 5.5.L L y L y J J J J J J L L k k U U U l o 5.5.5.5.5.",
"5.5.5.5.5.5.5.5.5.5.5.5.5.5.5.5.5.u 5.5.5.5.5.5.2.2.2.2.&.&.L L L L L J L I I U k k &.5.5.5.5.5.5.5.",
"5.5.5.5.5.5.5.5.5.5.5.5.5.5.5.5.5.u u 5.5.2.2.2.2.2.2.5.5.5.5.U I L L L I U U l =.2.2.2.5.5.5.5.5.5.",
"5.5.5.5.5.5.5.5.5.5.5.5.5.5.5.5.5.X r 5.5.5.5.5.5.5.5.5.5.5.5.5.5.5.5.5.5.5.5.5.2.2.2., 5.5.5.5.5.5.",
"5.5.5.5.5.5.5.5.5.5.5.5.5.5.5.5.5.5.5.5.5.5.5.5.5.5.5.5.5.5.5.5.5.5.5.5.5.5.5.5.2.2.<.5.5.5.5.5.5.5."
};
