/* XPM */
static char *result[] = {
/* columns rows colors chars-per-pixel */
"50 50 232 2 ",
"   c #130907",
".  c #180C0B",
"X  c #180F10",
"o  c #1C1214",
"O  c #1E110F",
"+  c #26120E",
"@  c #37180F",
"#  c #231412",
"$  c #2B1B1A",
"%  c #291916",
"&  c #351D16",
"*  c #341F19",
"=  c #391E14",
"-  c #3B221B",
";  c #37211C",
":  c #221E2A",
">  c #372524",
",  c #491F13",
"<  c #462214",
"1  c #45281E",
"2  c #4B291C",
"3  c #492516",
"4  c #562B19",
"5  c #57301F",
"6  c #63311E",
"7  c #4A2D23",
"8  c #452E29",
"9  c #452C24",
"0  c #4B3129",
"q  c #533023",
"w  c #54352B",
"e  c #5B392C",
"r  c #5B3526",
"t  c #433133",
"y  c #543932",
"u  c #593C32",
"i  c #6B3C28",
"p  c #673B26",
"a  c #633F30",
"s  c #5E423A",
"d  c #6F422B",
"f  c #67402D",
"g  c #734225",
"h  c #74452E",
"j  c #784628",
"k  c #634234",
"l  c #6C4632",
"z  c #6D4A3A",
"x  c #674738",
"c  c #724A33",
"v  c #7B4E35",
"b  c #754D39",
"n  c #7C513C",
"m  c #77523B",
"M  c #664943",
"N  c #6C524D",
"B  c #7B5544",
"V  c #77564A",
"C  c #7D5E52",
"Z  c #7F6055",
"A  c #5E5E6D",
"S  c #72676A",
"D  c #803321",
"F  c #824C2C",
"G  c #845236",
"H  c #83553C",
"J  c #8D5B3C",
"K  c #885838",
"L  c #975934",
"P  c #804F35",
"I  c #A25D2F",
"U  c #9B603C",
"Y  c #A6633C",
"T  c #815640",
"R  c #855A43",
"E  c #8B5D44",
"W  c #825C4B",
"Q  c #895F48",
"!  c #805F53",
"~  c #8C624B",
"^  c #8E6442",
"/  c #946244",
"(  c #92654C",
")  c #9C6A4C",
"_  c #976648",
"`  c #9B714F",
"'  c #8C6552",
"]  c #8A6A5C",
"[  c #876555",
"{  c #946B55",
"}  c #9B6D52",
"|  c #916B5A",
" . c #9C755B",
".. c #997159",
"X. c #A56A46",
"o. c #AD6B46",
"O. c #A46D4C",
"+. c #AA6C48",
"@. c #B56F4A",
"#. c #B8764A",
"$. c #A16D54",
"%. c #A47356",
"&. c #A2745A",
"*. c #AB7B5C",
"=. c #AB7758",
"-. c #B57653",
";. c #B67B55",
":. c #B17D5C",
">. c #B97D59",
",. c #AB704A",
"<. c #987767",
"1. c #8F787E",
"2. c #A67B63",
"3. c #AC7E63",
"4. c #A27D6A",
"5. c #B97E61",
"6. c #B5815E",
"7. c #BC835B",
"8. c #AB805C",
"9. c #9F8068",
"0. c #AB8264",
"q. c #AC836A",
"w. c #A78562",
"e. c #B38364",
"r. c #B98564",
"t. c #BB8A66",
"y. c #B58A6C",
"u. c #BB8B6C",
"i. c #B28468",
"p. c #BC9169",
"a. c #AB8774",
"s. c #B58C72",
"d. c #BA8E73",
"f. c #B08E7B",
"g. c #BC9273",
"h. c #BC947A",
"j. c #B49078",
"k. c #C5855B",
"l. c #C7875B",
"z. c #D08B5D",
"x. c #C48C65",
"c. c #C48B66",
"v. c #C3926C",
"b. c #CC946B",
"n. c #CC9166",
"m. c #D3976B",
"M. c #D59A6D",
"N. c #D79665",
"B. c #C49473",
"V. c #CA9672",
"C. c #CC9A75",
"Z. c #C49A7D",
"A. c #CA9C7B",
"S. c #C69778",
"D. c #D29D74",
"F. c #D59F76",
"G. c #CDA17C",
"H. c #C9A273",
"J. c #D3A27D",
"K. c #DCA578",
"L. c #E2A778",
"P. c #E1A26F",
"I. c #BB9782",
"U. c #BD9984",
"Y. c #B69685",
"T. c #AB9B94",
"R. c #C49C82",
"E. c #C99E83",
"W. c #CCA286",
"Q. c #CDA58B",
"!. c #CFA88D",
"~. c #D5A683",
"^. c #D5A885",
"/. c #DAAA84",
"(. c #D4AA8C",
"). c #DAAC8B",
"_. c #D1A688",
"`. c #DBB18E",
"'. c #CEAA93",
"]. c #C8A896",
"[. c #D4AD93",
"{. c #D6AF95",
"}. c #DBB295",
"|. c #DBB59B",
" X c #DDBA9C",
".X c #D7B59B",
"XX c #E2AE87",
"oX c #E2B28D",
"OX c #EAB285",
"+X c #E2B795",
"@X c #E4BC9D",
"#X c #E6BC98",
"$X c #F0BD96",
"%X c #C7AEA1",
"&X c #D6B6A1",
"*X c #DEBBA3",
"=X c #DEBFAA",
"-X c #D7B7A4",
";X c #E2BEA5",
":X c #EBC39E",
">X c #DFC1AD",
",X c #DCC4B4",
"<X c #E4C1A6",
"1X c #EBC5A6",
"2X c #E4C3AB",
"3X c #EAC6A9",
"4X c #EBCAAE",
"5X c #EEC9A5",
"6X c #F2CBA9",
"7X c #EBCCB3",
"8X c #EACFB9",
"9X c #E3C9B5",
"0X c #EDD2BC",
"qX c #EFD2B5",
"wX c #F3D1B3",
"eX c #F5D7BB",
"rX c #F8DABE",
"tX c #F1D0AE",
"yX c #D8D4D4",
"uX c #EDD9C8",
"iX c #F0D6C1",
"pX c #F3DAC3",
"aX c #F5DEC9",
"sX c #E2CFC3",
"dX c #F7E0CB",
"fX c #F7E4D3",
"gX c #FBE6D2",
"hX c #FDEDDA",
"jX c #FCE9D5",
"kX c #FFF0DF",
"lX c #FFF1E2",
"zX c None",
/* pixels */
"zXzXzXzXzXzXzXzXzXzXzXzXzXzXzXzXzXzXzXzXzXzXzXzXzXzXzXzXzXzXzXzXzXzXzXzXzXzXzXt.m > O x zXzXzXzXzXzX",
"zXzXzXzXzXzXzXzXzXzXzXzXzXzXzXzXzXzXzXzXzXzXzXzXzXzXzXzXzXzXzXzXzXzXzXzXzXzX9Xb + q   w zXzXzXzXzXzX",
"zXzXzXzXzXzXzXzXzXzXzXzXzXzXzXzXzXzXzXzXzXzXzXzXzXzXzXzXzXzXzXzXzXzXzXzXzX] ..    1   % zXzXzXzXzXzX",
"zXzXzXzXzXzXzXzXzXzXzXzXzXzXzXzXzXzXzXzXzXzXzXzXzXzXzXzXzXzXzXzXzXzXzXzXzXu.&     w   $ zXzXzXzXzXzX",
"zXzXzXzXzXzXzXzXzXzXzXzXzXzXzXzXzXzXzXzXzXzXzXzXzXzXzXzXzXzXzXzXzXzXzXzXwX) 8 . + ; ; 9 zXzXzXzXzXzX",
"zXzXzXzXzXzXzXzXzXzXzXzXzXzXzXzXzXzXzXzXzXzXzXU.zXzXzXzXzXzXzXzXzXzXzXzXK.b U.  O     > zXzXzXzXzXzX",
"zXzXzXzXzXzXzXzXzXzXzXzXzXzXzXzXzXzXzXzXzXzXoXO.J.zXzXzXzXzXzXzXzXzXzXzXK.K >.> +     > zXzXzXzXzXzX",
"zXzXzXzXzXzXzXzXzXzXzXzXzXzXzXzXzXzXzXzXzXzXX.) 6.zXzXzXzXzXzXzXzXzXzXzXK.^ L @ < $ o zXzXzXzXzXzXzX",
"zXzXzXzXzXzXzXzXzXzXzXzXzXzXzXzXzXzXzXzXzXzXt.0.=.zXzXzXzXzXzXzXzXzXzXF.n.%.0 8 1   Z zXzXzXzXzXzXzX",
"zXzXzXzXzXzXzXzXzXzXzXzXzXzXzXzXzXzXzXzXzXK $.3.=.zXzXzXzXzXzXzXzXzXzXy 5 J l     M zXzXzXzXzXzXzXzX",
"zXzXzXzXzXzXzXzXzXzXzXzXzXzXzXzXzXzXzXzXq.v h.y.) zXzXzXzXzXzXzXzXzXzX< s W .   ; zXzXzXzXzXzXzXzXzX",
"zXzXzXzXzXzXzXzXzXzXzXzXzXzXzXzXzXzXzXA...B Q H T zXzXzXzXzXzXzXzXzXzX] q.1   - - zXzXzXzXzXzXzXzXzX",
"zXzXzXzXzXzXzXzXzXzXzXzXzXzXzXzXzXzX2Xi.i.T a ; e zXzXzXzXzXzXzXzXzXzX6X*   &   m zXzXzXzXzXzXzXzXzX",
"zXzXzXzXzXzXzXzXzXzXzXzXzXzXzXzXzX=XB.d.h { ' a [.d.zXzXzXzXzXzXzXzXzX:X3.# + ; zXzXzXzXzXzXzXzXzXzX",
"zXzXzXzXzXzXzXzXzXzXzXzXzXzXzXzX4.&.Q [.].i z 3.:.=.T.zXzXzXzXzXzXzXhX$Xr.~ q B zXzXzXzXzXzXzXzXzXzX",
"zXzXzXzXzXzXzXzXzXzXzXzXzXzXzX}.{.=XH .XR.T B.- w } T zXzXzXzXzXzXzXgXeXl.c q 9 zXzXzXzXzXzXzXzXzXzX",
"zXzXzXzXzXzXzXzXzXzXzXzXzX/.k ..( iX*.>.q 8X) W o + | R zXzXzXzXzXzX8X+Xb.G B u.zXzXzXzXzXzXzXzXzXzX",
"zXzXzXzXzXzXzXzXzXzXzXzXzX/.u.p ' _.pXA H B.Q } c E.j.W zXzXzXzXzXzXrX3X4 / g.Q zXzXzXzXzXzXzXzXzXzX",
"zXzXzXzXzXzXzXzXzXzXzXzXzXzXaX}.q._ 0Xz ].} } v.r.J $.b zXzXzXzXzXzX0X7X{.K R d.zXzXzXzXzXzXzXzXzXzX",
"zXzXzXzXzXzXzXzXzXzXzXzXzXzXdX4X.X*.0Xa./ B B.u.q 2 M <.s zXzXzXzXzXG.wX+XA.;Xy.zXzXzXzXzXzXzXzXzXzX",
"zXzXzXzXzXzXzXzXzXzXzXzXzXzXiXgX0X_.3 G d./ 4 T i.} ( n 0 1.zXzXzXM |.wXoXC.O.h.zXzXzXzXzXzXzXzXzXzX",
"zXzXzXzXzXzXzXzXzXzXzXzXzXzXg N 4Xk.=.v.S./ +.o.m.).5.B.t $ k <.Q.V w #X3XoX;XC zXzXzXzXzXzXzXzXzXzX",
"zXzXzXzXeX7X<X6X^.zXzXzXzXzXA.: P.J 5.%.$X{.B.L X.+.y.&.8 e 8 z Q.*XX V 7X).|.R.zXzXzXzXzXzXzXzXzXzX",
"zXzXzXtXW.K./.n.:Xj :.{.i ,X;X5X#.D @.k.`.-.).V.;.3.j.} > ] Y.y  X|.X t / ). X<.zXzXzXzXzXzXzXzXzXzX",
"zXzXqX`.,.L.M.z.J.X.z.7.. 0.b.x.@.@ L.+.5./.L @X>.c.5.* a.u E.$ k A.u.o $ + w W zXzXzXzXzXzXzXzXzXzX",
"zXt.#.7.F I H.OXM.#.A.J # e.`.eX7XW XXm.#.Y B.x.c.c.R.0 M | A.% o Q A.w % w x 2.zXzXzXzXzXzXzXzXzXzX",
"tXM.U 4 *.p.C.#.+X).<X< o *.7XV.6Xl.N._ J c./.+.$.>.k '.x 2.C.W * 7 * Q.8 y w 2.zXzXzXzXzXzXzXzXzXzX",
"K.N.L J zXzXzX:X1X@X7XO + A.(.m.6XN.M.z.K.).M.5.@Xa T 2.C B (.[.w k q 1 3.[ 3.C *.zXzXzXzXzXzXY.g.6X",
"zXN zXzXzXzXzXzXkXgXwX  S I.pXhXaXoX5XOXoX$Xn.+XR.n E 0 n (.;X'.2.q V y 2.a.a.- H t.&X%XT.z Z W.[ h.",
"zXzXzXzXzXzXzXzXzXzXhX- y d.2X-XlXgXrXeXwXwX2Xr.= O.( V.~.;X2X*XI.} h q.* ] w 7 ../ [.B 0.J k w.c t.",
"zXzXzXzXzXzXzXzXzXzXzXi.( %X|.g.pXgXhXgXfX1X5.i S.J | ( _ |.;X;X(.*Xu.j.&XC ] 9 ( ..v.R.B C.1 !.R ` ",
"zXzXzXzXzXzXzXzXzXzXzXzXzXzXzX8Xj.gXgXrXA.b.`.3X-.^.l R.).9X2X$XN.k.;XR.<.Y.} z x d V.R.' e.@ 8.g ~ ",
"zXzXzXzXzXzXzXzXzXzXzXzXzXzXzXzXY.{ aXrX<XpX3XS.|.7XO.).c.|.}.A.#X/.^.r.j.<.' H m h B.B.W.m  .l ` J ",
"zXzXzXzXzXzXzXzXzXzXzXzXzXzXzXzXzX2XI.aXgXfX7X{.0X0X(._.k.D.+X).).).y.;Xx ] *.9 n _ 7.k.A.z w.7 5 s.",
"zXzXzXzXzXzXzXzXzXzXzXzXzXzXzXzXzXzXzXdXjXgX2XeX9X,X,XW.[.-.L.7.V.S.q.n r = d.z n 4 +.k.v.) ` y.b r ",
"zXzXzXzXzXzXzXzXzXzXzXzXzXzXzXzXzXzXzXzXhXpX8XiXuXT R.2.&.(.Q.' (.a.a.h.%.d *.u.) p r.7.o.u.J g ~ V ",
"zXzXzXzXzXzXzXzXzXzXzXzXzXzXzXzXzXzXzXzXzXjX) <.'.sX{.S.|.).l i.[ 2.e C.v v.K u._ *.,.k.k.7.) ^ q.x ",
"zXzXzXzXzXzXzXzXzXzXzXzXzXzXzXzXzXzXzXzXzXlXwX-.C.|.uX&.`.R =.'.{ [.R [.;.B.-.H p K ;.,.Y _ ` ' ; [ ",
"zXzXzXzXzXzXzXzXzXzXzXzXzXzXzXzXzXzXzXzXzXzXgXrXaX'.E.2XR.y.{.(.&Xd.5.~.-.x.3 6 c d @.Y k.U U ^ 2 w ",
"zXzXzXzXzXzXzXzXzXzXzXzXzXzXzXzXzXzXzXzXzXzXhX0X2.' c./.E.E.@X'._.+.R 5.P n.2 _ v < #.x.v.6.G B c e ",
"zXzXzXzXzXzXzXzXzXzXzXzXzXzXzXzXzXzXzXzXzXzXzX7X@X(.8X8XU.l <X;X! ;.< / , ^.c R &./ c.J.>.X.w.w y.{ ",
"zXzXzXzXzXzXzXzXzXzXzXzXzXzXzXzXzXzXzXzXzXzXzXzX8X2XiX&Xb }.7XQ.i |.2 u.< b.y.= *.F 7.7.-.6.g 7 0.C ",
"zXzXzXzXzXzXzXzXzXzXzXzXzXzXzXzXzXzXzXzXzXzXzXzXzXv.Q.Q V.pX0X9XV.B.6 oXj A.h.G L 7.;.I O.e.^ r r.y.",
"zXzXzXzXzXzXzXzXzXzXzXzXzXzXzXzXzXzXzXzXzXzXzXzXzXyX2X XiX7X).2X3XA.y.}.a E.d.e.,.-.n.k./ w.t.0.4 { ",
"zXzXzXzXzXzXzXzXzXzXzXzXzXzXzXzXzXzXzXzXzXzXzXzXzXzXzXiXuXS.4X.Xb.5.H  X~ y.3.3.;.z.M.V.!.B.g.W i ].",
"zXzXzXzXzXzXzXzXzXzXzXzXzXzXzXzXzXzXzXzXzXzXzXzXzXzXzXzX8Xd.8X4.$.[.Q &X' g.{.' G.C.J.G.Q. .{.w.} ..",
"zXzXzXzXzXzXzXzXzXzXzXzXzXzXzXzXzXzXzXzXzXzXzXzXzXzXzXzXzX,X-X'. X2.Z.'.Q.*Xh.2.G.Z.-X=.g.K ../ j.h.",
"zXzXzXzXzXzXzXzXzXzXzXzXzXzXzXzXzXzXzXzXzXzXzXzXzXzXzXzXzXzX4XZ.h.7X4.d.[.R.|.3.h.w.Q._.<.y.R.|.8.zX",
"zXzXzXzXzXzXzXzXzXzXzXzXzXzXzXzXzXzXzXzXzXzXzXzXzXzXzXzXzXzXzXzXuX0X9X2X>Xb.[.9X{.s.2..XH.zXzXzXzXzX",
"zXzXzXzXzXzXzXzXzXzXzXzXzXzXzXzXzXzXzXzXzXzXzXzXzXzXzXzXzXzXzXzXzXzXzXzXzXzXzXzXzXzXzXzXzXzXzXzXzXzX"
};
