/* XPM */
static char *result[] = {
/* columns rows colors chars-per-pixel */
"50 50 70 1 ",
"  c #8DD7FD",
". c #92DBF6",
"X c #93DCF7",
"o c #92DEF7",
"O c #94DEF7",
"+ c #93D9F8",
"@ c #91D8FB",
"# c #90DBFE",
"$ c #91DDFD",
"% c #92DEFD",
"& c #90DDFE",
"* c #91DCFF",
"= c #92DCFE",
"- c #94DEFC",
"; c #94DDFE",
": c #97E2F7",
"> c #9BE2F5",
", c #97E3F8",
"< c #93E0FC",
"1 c #93E1FD",
"2 c #94E0FD",
"3 c #94E1FD",
"4 c #95E2FC",
"5 c #94E3FC",
"6 c #95E3FC",
"7 c #94E2FD",
"8 c #95E2FD",
"9 c #94E3FD",
"0 c #95E3FD",
"q c #96E2FD",
"w c #96E3FD",
"e c #95E0FE",
"r c #94E2FE",
"t c #95E3FE",
"y c #95E4FC",
"u c #94E4FD",
"i c #95E4FD",
"p c #94E5FD",
"a c #95E5FD",
"s c #96E4FC",
"d c #97E4FC",
"f c #96E4FD",
"g c #96E5FD",
"h c #97E5FD",
"j c #97E6FC",
"k c #96E6FD",
"l c #96E4FE",
"z c #96E6FE",
"x c #9DE2FA",
"c c #9AE5FB",
"v c #9BE5FB",
"b c #9AE6FA",
"n c #98E3FD",
"m c #9BE3FD",
"M c #98E5FD",
"N c #9BE5FC",
"B c #9AE4FD",
"V c #9AE5FD",
"C c #98E6FE",
"Z c #99E7FE",
"A c #9AE7FE",
"S c #9DE4FC",
"D c #9EE9FA",
"F c #99E9FF",
"G c #9CEAFE",
"H c #A4ECFB",
"J c #A2EEFC",
"K c #A4ECFC",
"L c #A7EEFC",
"P c None",
/* pixels */
"fPPPPPPPPPPPPPPPPPPPPPPPPPPPPPPPPPPPPPPPPPPPPPPPPP",
"PPPPPPPPPPPPPPPPPPNPPPPPPPPPPPPPPPPPPPPPPPPPPPaPPP",
"PPPPHPPPPPPPPPPPPPPgPP*PPPPPPPPPPPPPPPPPPPfPgPPPPP",
"PPPgaPfPPPPPPPPPPPPPfPfPPPPPPPPPauPPPPPPPPPPP<PPPP",
"PPPPPiPPPaPPPPPPPPPPPPPPPPZPPPPPPPPPPPPPPrPPPPPPPP",
"PPPPyPPPPPfPPPPPPPPPPPPPPPPPPPPPPPPPPPPPPPfPPPPPVP",
"PPPPPPgPPPPPPPPPPPPPPPPPPPPPPPPPPPPPPPPPPPPPPPPPPP",
"PPPPPPPPPPPPPPPPPPPPPPPPPPPPPPPPPPPPPPPPPPpPPPPPPP",
"PPPPPPPPKePPPPPPPPPPPPPPPPPPPPPPPPPPPPPPPPPPPPPPPP",
"PPPPPPPPPPPPPPPPPPPPPPPPPPPPPPPPPPPPPPPPPPPPyPPPPP",
"PPPPPPPPPPPPPPPPPPPPPPPPPPPPPPPPPPPPPPPPPPPPPPPPPP",
"PPPPPPPPPPPPPPPPPPPPPPPPPPPfPPPPPPPPPPPPPPPPPPPPPP",
"PPPPPPPOPPPPPPPPi3fo8PPPaPPPPPPPPPPPPPPPPPPPPPPPPP",
"PPPPPPPPPPPPPPPPPPPPFf7PaPPPPPPPPPPPPPPPPPPPPPPPPP",
"PPPPPPPPPPPPPPPPPPPPPPPPPPPiPPPPPPPPPPbPPPPPPPPPPP",
"PPPPPPPPPPPPPPPPPPPPkaP9PPPPPPMPPPP PPyPPPPtPPPPPP",
"PPPPPPPPPPPPPPPPPPPPPPPPPPPPPPPPPPPPPPPPPPPPPPPPPP",
"PPPPPPPPPPPPPPPPPPPPPPPPPPPPPPPPPPPPPPPPPPPaPPPPPP",
"PPPPPPPPPPPPPPPPPPPPPPP;PPPPPPPPPPPPPPPPPPPPPPPPPP",
"PPPPPPPPPPPPPPPPPPPPPPPPPPPPPPPPPPPPPPPPPPPPPPPPPP",
"PPPPPPPPPPPPPPPPPPPPPPPm$PPaPPPPPPPPPPPPPPPpPPPPPP",
"PPPPjPPPPPPPPPPPPPPP-PPPPPPPPPPPPPPPPPPPPPPPPPPPPP",
"PPPPPPPPPPPPPPPPPPPPPPPPPPPPPPPPPPPPPPPPP1PPPPPPPP",
"PPPPPPPPPPPPPPPPPPPPPPPPPPPPPPPPPPPPPPPPBPPPPPPPPP",
"PPPP0PPPPPPPPPPPPPPPPPPPPPPPPPPPPPPPPPPPPPPPPPPPPP",
"PPPPPPu+PPPP.PPPPPPPPPPPPPPPPPPPPPPPPPPPPPPPPPPPPP",
"PPPPPPPPPAPCPPiPPPPPPPPPPPPPPPPPPPPPPPPPPPPPPPPPPP",
"P6PPPPPPPPPPPPPPfPPPPPPzPPPPPPPPPPPPPPPPPPPPPPPPPP",
"PPMPPPPPPf0PPPPPPPPPPPPPpPPDP#PPPiPPPPPPPPPPPPPPPP",
"PPPPPPPPPPPPPPPPPPPP4PPPPPPPPJPPaPPPPPPPPPPPPPPPPP",
"PPPPPPPPPPPPdPPPPPPPPPPPSPPPPPPPPPPPPPPPPPPPPPPPPP",
"PPPPPPPPPPPPPPPPPPPPPPPPPPPPPPPPPPPPPPPPPPPPPPPPPP",
"PPPPPPPPPPPPPPPPPPPPPPPPPPPPPPPPPPPPPPPPPPPPPP7PPP",
"PPPPPPPPPPPPPPPPPPPPPPPPPPfPPPPPPPPPPPPPPPPlPPiPPP",
"PPPPPPPPPPPPPPPPPPPPPPPPPPPPPPPPPPPPPPPPPPPPPPPPPP",
"PPPPPPPPPPPPPPPPPPPPPPPPPPPPPPPPPPPPPPPPPPPPPPPPPP",
"PPPPPPPPPPp@PPPPPPPPPPPPPPPPPPPPPPPPPPPPPP8PPPPc0P",
"PPPPPPPPauPPPPPqPPPPPPPPPPPPPPPPPPPPPPPPPPPPPphPPP",
"PPPPPPPPPPPPaPPPPPPPPPPPPPPPPPPPPPPPPPPPPPPPPPPPPP",
"PPPPPPPPPPPPPPPPPPPPPPPPPPPPPPPPPPPPPPPPPPPPPPXPPp",
"PPPPPPPPPPPPPPPPPPPPPPPPPPPPPPPPPPPPPPPPPPPPPPPPPa",
"PPPPPsPPPGPPPP&PPPPPPPPPPPPPhPPPPPPPPPPPPPPPPPP%PP",
"PPPPPPPPPPP0PPPPPPPPPPPPPPP,P3PPPPPPPPPPPPPPPPPPPp",
"PPPPPPPPPPPPPPP2PPPPPPPPPPPPPPPPPPPPPPPPPPPPPPPPfP",
"PPPPPPPPP=PPPPgP0PPPPPPPuPiPPPPPPpPPPPPPPPPPPPPpPP",
"PPPPPPPPPPPPPvPPPPPPPPPPPPPgLPPPPwPPPPPPPPPPPPPPPP",
"PPPPPPPPPPpP:PPPPPPPPPPPP>PPPPPPPPP5PPPPPPPPPPPPPP",
"PPPPPPPPPPPnPPPPPPPPPPPPPPPPPPPPPPPPxPPPPPPPPPPPPP",
"PPPPPPPPPPPPPPPPPPPPPPPPPPPPPPPPPPPPPPPPPPPPPPPPPP",
"PPPPPPPPPPPPPPPPPPPPPPPPPPPPPPPPPPPPPPPPPPPPPPPPPP"
};
