/* XPM */
static char *result[] = {
/* columns rows colors chars-per-pixel */
"50 50 57 1 ",
"  c #190A01",
". c #261201",
"X c #2A1503",
"o c #2F1906",
"O c #321B07",
"+ c #341E0B",
"@ c #35200D",
"# c #3A220C",
"$ c #3C2817",
"% c #3E2C1D",
"& c #41260F",
"* c #422610",
"= c #472B12",
"- c #4B2E14",
"; c #4F3015",
": c #513216",
"> c #553519",
", c #583719",
"< c #57391E",
"1 c #5C3A1C",
"2 c #613E1E",
"3 c #463322",
"4 c #493523",
"5 c #4E3927",
"6 c #4F3B28",
"7 c #503B27",
"8 c #5E3F22",
"9 c #513C29",
"0 c #5E4024",
"q c #5C432C",
"w c #614125",
"e c #6C4623",
"r c #6F4926",
"t c #66462A",
"y c #67482C",
"u c #6A492B",
"i c #714A26",
"p c #734C29",
"a c #77512F",
"s c #78522F",
"d c #604630",
"f c #6A4F35",
"g c #7A5330",
"h c #735539",
"j c #77583C",
"k c #78593C",
"l c #856243",
"z c #8B6645",
"x c #8E6947",
"c c #946D4A",
"v c #986F4B",
"b c #9A714C",
"n c #A67A53",
"m c #B5855B",
"M c #B8875C",
"N c #BB895E",
"B c None",
/* pixels */
"BB+1pBB ;eBBhO2iBB -rBB8+1iBB -rBB#+1iBB =eBB#O,iB",
"BBqlzBB%kxBBfylzBB%jxBBdqzzBB%hcBBqqlzBB%hcBBqqlzB",
"Nn+>cNN :>MNc@1cNm ;>mNx+1cMM -<mMz@1cNm -<mMzO,cN",
"kkkkk:>>->>>>>>>>>>;>>>>>>>>>>->>>>>>>>>>=>>>>>>>>",
"kkkkk:kk-kkkkkkkjkj-kkkkkkkkjk-jkkkkkkkkk-kkkkkkkk",
"kkkkk:kk-kkkkkkkkkj-kkkkkkkkkk-kkkkkkkkkk-kkkkkkkk",
"kkkkk:kk-kkkkkkkkkk-kkkkkkkkkk=kkkkkkkkkk-jkkkkkkk",
"kkkkkukk-jjjjkjkjjj-jjjjjjjjjj-jjkkkkkkkk-kkkkkkkk",
"kkkkku-<;;-;--;-;-;w-;-------;j-;;;;;;;;;h;;;;---;",
"kkkkku,,,,,,>e,,,,,,,,,1,,,,,,,,,,>>.>,><,,1,<<X,,",
"kkkkkukkkkkkke:kkkkkkkkk:;kkkkkkkkk0.jkkkkjkjjj4kk",
"kkkkkukkkkkkje:kkkkkkkkk::kkkkkkkkk:.jkkkkjjjjj3kk",
"kkkkkkkkkkkkke:kkkkkkkkk::kjkkkkjkk;.kkkkkkkjjj4kk",
"kkkkkkkkkkkkke:kkkkkkgkk::kjkkkkjjk>.kkkkkjjjjj3kk",
";--------;--;:-:-;------;-;-----;;;;;;;;;=---==;--",
"::e;:::11112111121121122111121211111.1111111ujjkjj",
"kke:kkkkkkkkj;:jjjjjkkkk::kkkkkkkkk;.jkkkkkkujjkjj",
"kj::kkkkkkkkk;:jjjkkkkkk:;kkkkkkkkk>.kkkkkkkukjkjj",
"kk::kkkkkkkkk:>jkkkkkkkk;:jkkkkkkkj;Xkkkkkkkkkkkjk",
"ww::ww0wwwww2:;wwwwwwwww::w0wwwwwww:.wwwwwwwkkkkkk",
"-------------2-----;w---8-----<0---1----;>0;jjkkkk",
"::::::;:-::::::::::-::;:;:::::-:::::::::;-;>jjkkkk",
"kkkkkkjj-kkkkkkkjkk=jkkkjkkkkk-jkkkkjkkkj-jkjkkkkk",
"kkkkkkjj-kkkkkkkkkk-kkkkkkkkkj-kkkkkkkkkj-jjjkkkkk",
"kkjkkjkk-jjkkkjjkjj-kkjjkkkkkj-jkkkkkkkkk;kkkkkkkk",
"::;;;:>:->:::>::::;-::::::::>:-:::::::::;;:tkkkkkk",
"iirrrr=----==-=----;--------=-:-;==;;---;;;=;====;",
"kkjkjj::-:::::>;;::-::::::-:::-:::;::::;;=::::;:::",
"kkkkjkkk:kkkkkkkkkk-kkkkkkkkkk-jkkkkkkkkk;jjkkkkkj",
"kkkkkkkk:kkkkkkkkkj-kkkkkkkkkk-kkkkkkkkkk;kjkkkkkj",
"kkkkkkkk-kjjkkgkkkj-kkkkkkjjkj-jkkkkkkkkk;kkkkkkkk",
"1kkkkk:>:>>>>>>::>:;::>:>::>>>-::>:::>::>;:::>::::",
",kkkkk,<,<,,<,,<,,,<<,,,,<,<,,,,,>>,,,,>,,,,>---;;",
"1kkkkkjkkkkkk>+kkkjjkkkk;;jju800000;:808008008,;00",
">kkkkkkkkkkkj>Okkkkkkkkk;;kkkkkkkkj;:jkkjkkkkk1:kk",
":kkkkkkkkkkkk>.kkkkkkkkk>;kkkkkkkkj;:kkkjjkkkk,:kk",
":kjkkkkkkkkjk>.jkkkkkkkj;>jkkkkkkkj:>jkkkkjjkj,>kk",
":kjjkk@@@@@+++.@@@@O@@X...oXXoXXXooXX==--==-;=1===",
"Brueuuggsssissassaasaaaassssssssrrriirrriiri;:::;;",
":kk4kkkkkkk>k>.kkkjkkjkk>;jjjjjjkkk2;kkkkkkkkkkjkk",
">kj4kkkjkkj>jj$jkkkkkkkk:;kkkkjjkkk2>kkkkkkkkkkkj8",
";kj4kkkjkkj>jj$jkkkkkkkk;;kkkkjjkkk2;kkkkkkkkkkkj1",
":jj4kkjjkjj>kk%kkkjjkkkk::kkkkjjkkk2;jkkkkkkkkkkk1",
"B33X343;;34o57X5555555555@555555565o77955797kkkkk1",
"Bbbbvccvwcvivvbvccc;cccccbcccc;ccccvvcccc&xckkkkj:",
"Bkkkkkkkrkk;kkkkkkk;kkkkkkkkkj;jkkjjkkjjj&kkkkkkj:",
"Bkkkkkkklkk>kkkkkkj-kkkkkkkkjj-jkkjkkkkkk&kkkkkkj:",
"Bkkkkkkklkk;kkkkjjj;kkkkkkkkjj-jkkkkkkkjj.kkkkkkj>",
"Bkkkkkkklkk:kkkkkkj;kkkkkkkjjj-jkkkkkkkkj.jjjkkkk>",
"B;;;;>;;;;;;;;;:;;;:;;;;;;....;.......X....Xkkkkj:"
};
